<svg width="861" height="772" viewBox="0 0 861 772" fill="none" xmlns="http://www.w3.org/2000/svg">
<g filter="url(#filter0_d_203_80)">
<rect y="416" width="853" height="348" rx="16" fill="white"/>
<rect x="3" y="419" width="847" height="342" rx="13" stroke="black" stroke-width="6"/>
</g>
<path d="M250.369 710.152L235.393 696.232C232.129 697.192 228.705 697.672 225.121 697.672C218.913 697.672 213.281 696.232 208.225 693.352C203.169 690.408 199.169 686.344 196.225 681.16C193.345 675.912 191.905 669.992 191.905 663.4C191.905 656.808 193.345 650.92 196.225 645.736C199.169 640.488 203.169 636.424 208.225 633.544C213.281 630.6 218.913 629.128 225.121 629.128C231.393 629.128 237.057 630.6 242.113 633.544C247.169 636.424 251.137 640.488 254.017 645.736C256.897 650.92 258.337 656.808 258.337 663.4C258.337 670.184 256.833 676.232 253.825 681.544C250.817 686.792 246.689 690.824 241.441 693.64L259.393 710.152H250.369ZM198.817 663.4C198.817 669.096 199.969 674.12 202.273 678.472C204.577 682.76 207.713 686.056 211.681 688.36C215.649 690.664 220.129 691.816 225.121 691.816C230.113 691.816 234.593 690.664 238.561 688.36C242.529 686.056 245.665 682.76 247.969 678.472C250.273 674.12 251.425 669.096 251.425 663.4C251.425 657.704 250.273 652.712 247.969 648.424C245.665 644.136 242.529 640.84 238.561 638.536C234.593 636.232 230.113 635.08 225.121 635.08C220.129 635.08 215.649 636.232 211.681 638.536C207.713 640.84 204.577 644.136 202.273 648.424C199.969 652.712 198.817 657.704 198.817 663.4ZM316.135 644.584V697H309.415V687.784C307.879 691.048 305.511 693.544 302.311 695.272C299.111 697 295.527 697.864 291.559 697.864C285.287 697.864 280.167 695.944 276.199 692.104C272.231 688.2 270.247 682.568 270.247 675.208V644.584H276.871V674.44C276.871 680.136 278.279 684.488 281.095 687.496C283.975 690.504 287.879 692.008 292.807 692.008C297.863 692.008 301.895 690.408 304.903 687.208C307.911 684.008 309.415 679.304 309.415 673.096V644.584H316.135ZM334.837 634.696C333.493 634.696 332.341 634.216 331.381 633.256C330.421 632.296 329.941 631.112 329.941 629.704C329.941 628.296 330.421 627.144 331.381 626.248C332.341 625.288 333.493 624.808 334.837 624.808C336.181 624.808 337.333 625.288 338.293 626.248C339.253 627.144 339.733 628.296 339.733 629.704C339.733 631.112 339.253 632.296 338.293 633.256C337.333 634.216 336.181 634.696 334.837 634.696ZM338.197 644.584V697H331.477V644.584H338.197ZM356.966 691.432H384.422V697H349.286V691.432L376.262 650.152H349.766V644.584H383.942V650.152L356.966 691.432ZM399.341 691.432H426.797V697H391.661V691.432L418.637 650.152H392.141V644.584H426.317V650.152L399.341 691.432ZM441.524 634.696C440.18 634.696 439.028 634.216 438.068 633.256C437.108 632.296 436.628 631.112 436.628 629.704C436.628 628.296 437.108 627.144 438.068 626.248C439.028 625.288 440.18 624.808 441.524 624.808C442.868 624.808 444.02 625.288 444.98 626.248C445.94 627.144 446.42 628.296 446.42 629.704C446.42 631.112 445.94 632.296 444.98 633.256C444.02 634.216 442.868 634.696 441.524 634.696ZM444.884 644.584V697H438.164V644.584H444.884ZM457.03 670.792C457.03 665.352 458.118 660.616 460.294 656.584C462.47 652.488 465.478 649.352 469.318 647.176C473.158 644.936 477.542 643.816 482.47 643.816C488.934 643.816 494.246 645.416 498.406 648.616C502.63 651.816 505.35 656.168 506.566 661.672H499.366C498.47 657.896 496.518 654.952 493.51 652.84C490.566 650.664 486.886 649.576 482.47 649.576C478.95 649.576 475.782 650.376 472.966 651.976C470.15 653.576 467.91 655.976 466.246 659.176C464.646 662.312 463.846 666.184 463.846 670.792C463.846 675.4 464.646 679.304 466.246 682.504C467.91 685.704 470.15 688.104 472.966 689.704C475.782 691.304 478.95 692.104 482.47 692.104C486.886 692.104 490.566 691.048 493.51 688.936C496.518 686.76 498.47 683.752 499.366 679.912H506.566C505.35 685.288 502.63 689.608 498.406 692.872C494.182 696.136 488.87 697.768 482.47 697.768C477.542 697.768 473.158 696.68 469.318 694.504C465.478 692.264 462.47 689.128 460.294 685.096C458.118 681 457.03 676.232 457.03 670.792ZM515.905 670.696C515.905 665.32 516.961 660.616 519.073 656.584C521.249 652.488 524.225 649.352 528.001 647.176C531.841 644.936 536.161 643.816 540.961 643.816C545.953 643.816 550.241 644.968 553.825 647.272C557.473 649.576 560.097 652.52 561.697 656.104V644.584H568.417V697H561.697V685.384C560.033 688.968 557.377 691.944 553.729 694.312C550.145 696.616 545.857 697.768 540.865 697.768C536.129 697.768 531.841 696.648 528.001 694.408C524.225 692.168 521.249 689 519.073 684.904C516.961 680.808 515.905 676.072 515.905 670.696ZM561.697 670.792C561.697 666.568 560.833 662.856 559.105 659.656C557.377 656.456 555.009 653.992 552.001 652.264C549.057 650.536 545.793 649.672 542.209 649.672C538.497 649.672 535.169 650.504 532.225 652.168C529.281 653.832 526.945 656.264 525.217 659.464C523.553 662.6 522.721 666.344 522.721 670.696C522.721 674.984 523.553 678.76 525.217 682.024C526.945 685.224 529.281 687.688 532.225 689.416C535.169 691.08 538.497 691.912 542.209 691.912C545.793 691.912 549.057 691.048 552.001 689.32C555.009 687.592 557.377 685.128 559.105 681.928C560.833 678.728 561.697 675.016 561.697 670.792ZM590.478 625.96V697H583.758V625.96H590.478ZM628.967 670.696C628.967 665.32 630.023 660.616 632.135 656.584C634.311 652.488 637.287 649.352 641.063 647.176C644.903 644.936 649.223 643.816 654.023 643.816C659.015 643.816 663.303 644.968 666.887 647.272C670.535 649.576 673.159 652.52 674.759 656.104V644.584H681.479V697H674.759V685.384C673.095 688.968 670.439 691.944 666.791 694.312C663.207 696.616 658.919 697.768 653.927 697.768C649.191 697.768 644.903 696.648 641.063 694.408C637.287 692.168 634.311 689 632.135 684.904C630.023 680.808 628.967 676.072 628.967 670.696ZM674.759 670.792C674.759 666.568 673.895 662.856 672.167 659.656C670.439 656.456 668.071 653.992 665.063 652.264C662.119 650.536 658.855 649.672 655.271 649.672C651.559 649.672 648.231 650.504 645.287 652.168C642.343 653.832 640.007 656.264 638.279 659.464C636.615 662.6 635.783 666.344 635.783 670.696C635.783 674.984 636.615 678.76 638.279 682.024C640.007 685.224 642.343 687.688 645.287 689.416C648.231 691.08 651.559 691.912 655.271 691.912C658.855 691.912 662.119 691.048 665.063 689.32C668.071 687.592 670.439 685.128 672.167 681.928C673.895 678.728 674.759 675.016 674.759 670.792ZM703.445 656.104C705.109 652.584 707.733 649.672 711.317 647.368C714.965 645 719.285 643.816 724.277 643.816C729.013 643.816 733.269 644.936 737.045 647.176C740.885 649.352 743.861 652.488 745.973 656.584C748.149 660.616 749.237 665.32 749.237 670.696C749.237 676.072 748.149 680.808 745.973 684.904C743.861 689 740.885 692.168 737.045 694.408C733.269 696.648 729.013 697.768 724.277 697.768C719.349 697.768 715.061 696.616 711.413 694.312C707.765 691.944 705.109 689 703.445 685.48V721.768H696.821V644.584H703.445V656.104ZM742.421 670.696C742.421 666.344 741.557 662.6 739.829 659.464C738.165 656.264 735.861 653.832 732.917 652.168C729.973 650.504 726.645 649.672 722.933 649.672C719.349 649.672 716.053 650.536 713.045 652.264C710.101 653.992 707.765 656.456 706.037 659.656C704.309 662.856 703.445 666.568 703.445 670.792C703.445 675.016 704.309 678.728 706.037 681.928C707.765 685.128 710.101 687.592 713.045 689.32C716.053 691.048 719.349 691.912 722.933 691.912C726.645 691.912 729.973 691.08 732.917 689.416C735.861 687.688 738.165 685.224 739.829 682.024C741.557 678.76 742.421 674.984 742.421 670.696ZM768.226 656.104C769.89 652.584 772.514 649.672 776.098 647.368C779.746 645 784.066 643.816 789.058 643.816C793.794 643.816 798.05 644.936 801.826 647.176C805.666 649.352 808.642 652.488 810.754 656.584C812.93 660.616 814.018 665.32 814.018 670.696C814.018 676.072 812.93 680.808 810.754 684.904C808.642 689 805.666 692.168 801.826 694.408C798.05 696.648 793.794 697.768 789.058 697.768C784.13 697.768 779.842 696.616 776.194 694.312C772.546 691.944 769.89 689 768.226 685.48V721.768H761.602V644.584H768.226V656.104ZM807.202 670.696C807.202 666.344 806.338 662.6 804.61 659.464C802.946 656.264 800.642 653.832 797.698 652.168C794.754 650.504 791.426 649.672 787.714 649.672C784.13 649.672 780.834 650.536 777.826 652.264C774.882 653.992 772.546 656.456 770.818 659.656C769.09 662.856 768.226 666.568 768.226 670.792C768.226 675.016 769.09 678.728 770.818 681.928C772.546 685.128 774.882 687.592 777.826 689.32C780.834 691.048 784.13 691.912 787.714 691.912C791.426 691.912 794.754 691.08 797.698 689.416C800.642 687.688 802.946 685.224 804.61 682.024C806.338 678.76 807.202 674.984 807.202 670.696Z" fill="black"/>
<g filter="url(#filter1_d_203_80)">
<path d="M217.344 546H205.824V464.72H177.28V454.608H245.76V464.72H217.344V546ZM284.757 454.608C292.352 454.608 298.581 455.589 303.445 457.552C308.394 459.429 312.064 462.288 314.453 466.128C316.842 469.968 318.037 474.789 318.037 480.592C318.037 485.456 317.141 489.509 315.349 492.752C313.557 495.995 311.253 498.597 308.437 500.56C305.706 502.437 302.805 503.931 299.733 505.04L324.821 546H311.381L289.237 508.24H271.061V546H259.541V454.608H284.757ZM284.117 464.592H271.061V498.512H284.757C289.706 498.512 293.76 497.872 296.917 496.592C300.074 495.227 302.378 493.264 303.829 490.704C305.365 488.144 306.133 484.944 306.133 481.104C306.133 477.093 305.322 473.893 303.701 471.504C302.165 469.115 299.776 467.365 296.533 466.256C293.29 465.147 289.152 464.592 284.117 464.592ZM364.894 546H331.87V539.344L342.622 536.912V463.824L331.87 461.264V454.608H364.894V461.264L354.142 463.824V536.912L364.894 539.344V546ZM446.925 454.608L414.285 546H402.765L370.125 454.608H382.157L402.765 513.232C403.704 515.707 404.514 518.096 405.197 520.4C405.88 522.704 406.477 524.923 406.989 527.056C407.586 529.104 408.098 531.152 408.525 533.2C408.952 531.152 409.421 529.061 409.933 526.928C410.53 524.795 411.17 522.576 411.853 520.272C412.621 517.968 413.432 515.536 414.285 512.976L434.765 454.608H446.925ZM485.019 546H451.995V539.344L462.747 536.912V463.824L451.995 461.264V454.608H485.019V461.264L474.267 463.824V536.912L485.019 539.344V546ZM560.01 546L549.002 517.712H512.778L501.898 546H490.25L525.962 454.224H536.33L571.914 546H560.01ZM535.306 479.824C535.05 479.141 534.623 477.904 534.026 476.112C533.429 474.32 532.831 472.485 532.234 470.608C531.722 468.645 531.295 467.152 530.954 466.128C530.527 467.835 530.058 469.584 529.546 471.376C529.119 473.083 528.65 474.661 528.138 476.112C527.711 477.563 527.327 478.8 526.986 479.824L516.618 507.472H545.546L535.306 479.824Z" fill="#FF3737"/>
<path d="M217.344 546V552C220.658 552 223.344 549.314 223.344 546H217.344ZM205.824 546H199.824C199.824 549.314 202.51 552 205.824 552V546ZM205.824 464.72H211.824C211.824 461.406 209.138 458.72 205.824 458.72V464.72ZM177.28 464.72H171.28C171.28 468.034 173.966 470.72 177.28 470.72V464.72ZM177.28 454.608V448.608C173.966 448.608 171.28 451.294 171.28 454.608H177.28ZM245.76 454.608H251.76C251.76 451.294 249.074 448.608 245.76 448.608V454.608ZM245.76 464.72V470.72C249.074 470.72 251.76 468.034 251.76 464.72H245.76ZM217.344 464.72V458.72C214.03 458.72 211.344 461.406 211.344 464.72H217.344ZM217.344 540H205.824V552H217.344V540ZM211.824 546V464.72H199.824V546H211.824ZM205.824 458.72H177.28V470.72H205.824V458.72ZM183.28 464.72V454.608H171.28V464.72H183.28ZM177.28 460.608H245.76V448.608H177.28V460.608ZM239.76 454.608V464.72H251.76V454.608H239.76ZM245.76 458.72H217.344V470.72H245.76V458.72ZM211.344 464.72V546H223.344V464.72H211.344ZM303.445 457.552L301.2 463.116C301.239 463.132 301.278 463.147 301.317 463.162L303.445 457.552ZM314.453 466.128L309.359 469.298L309.359 469.298L314.453 466.128ZM315.349 492.752L320.6 495.654L320.6 495.654L315.349 492.752ZM308.437 500.56L311.836 505.504C311.847 505.497 311.857 505.49 311.868 505.482L308.437 500.56ZM299.733 505.04L297.695 499.397C295.999 500.009 294.668 501.352 294.071 503.054C293.474 504.756 293.675 506.636 294.616 508.174L299.733 505.04ZM324.821 546V552C326.992 552 328.994 550.827 330.056 548.932C331.117 547.038 331.072 544.718 329.938 542.866L324.821 546ZM311.381 546L306.205 549.035C307.282 550.872 309.252 552 311.381 552V546ZM289.237 508.24L294.413 505.205C293.336 503.368 291.366 502.24 289.237 502.24V508.24ZM271.061 508.24V502.24C267.747 502.24 265.061 504.926 265.061 508.24H271.061ZM271.061 546V552C274.375 552 277.061 549.314 277.061 546H271.061ZM259.541 546H253.541C253.541 549.314 256.227 552 259.541 552V546ZM259.541 454.608V448.608C256.227 448.608 253.541 451.294 253.541 454.608H259.541ZM271.061 464.592V458.592C267.747 458.592 265.061 461.278 265.061 464.592H271.061ZM271.061 498.512H265.061C265.061 501.826 267.747 504.512 271.061 504.512V498.512ZM296.917 496.592L299.171 502.152C299.214 502.135 299.256 502.117 299.298 502.099L296.917 496.592ZM303.829 490.704L298.684 487.617C298.658 487.66 298.633 487.703 298.609 487.746L303.829 490.704ZM303.701 471.504L298.654 474.749C298.681 474.79 298.708 474.832 298.736 474.873L303.701 471.504ZM296.533 466.256L294.591 471.933L294.591 471.933L296.533 466.256ZM284.757 460.608C291.898 460.608 297.293 461.54 301.2 463.116L305.69 451.988C299.869 449.639 292.805 448.608 284.757 448.608V460.608ZM301.317 463.162C305.255 464.655 307.778 466.757 309.359 469.298L319.547 462.958C316.35 457.819 311.534 454.203 305.573 451.942L301.317 463.162ZM309.359 469.298C311.01 471.952 312.037 475.597 312.037 480.592H324.037C324.037 473.982 322.675 467.984 319.547 462.958L309.359 469.298ZM312.037 480.592C312.037 484.748 311.269 487.731 310.098 489.85L320.6 495.654C323.013 491.288 324.037 486.164 324.037 480.592H312.037ZM310.098 489.85C308.714 492.354 307.01 494.241 305.006 495.638L311.868 505.482C315.496 502.954 318.4 499.636 320.6 495.654L310.098 489.85ZM305.038 495.616C302.723 497.207 300.278 498.464 297.695 499.397L301.771 510.683C305.332 509.397 308.69 507.667 311.836 505.504L305.038 495.616ZM294.616 508.174L319.704 549.134L329.938 542.866L304.85 501.906L294.616 508.174ZM324.821 540H311.381V552H324.821V540ZM316.557 542.965L294.413 505.205L284.061 511.275L306.205 549.035L316.557 542.965ZM289.237 502.24H271.061V514.24H289.237V502.24ZM265.061 508.24V546H277.061V508.24H265.061ZM271.061 540H259.541V552H271.061V540ZM265.541 546V454.608H253.541V546H265.541ZM259.541 460.608H284.757V448.608H259.541V460.608ZM284.117 458.592H271.061V470.592H284.117V458.592ZM265.061 464.592V498.512H277.061V464.592H265.061ZM271.061 504.512H284.757V492.512H271.061V504.512ZM284.757 504.512C290.159 504.512 295.051 503.823 299.171 502.152L294.663 491.032C292.468 491.921 289.254 492.512 284.757 492.512V504.512ZM299.298 502.099C303.444 500.307 306.85 497.542 309.049 493.662L298.609 487.746C297.906 488.986 296.705 490.147 294.536 491.085L299.298 502.099ZM308.974 493.791C311.208 490.067 312.133 485.726 312.133 481.104H300.133C300.133 484.162 299.522 486.221 298.684 487.617L308.974 493.791ZM312.133 481.104C312.133 476.344 311.177 471.836 308.666 468.135L298.736 474.873C299.467 475.95 300.133 477.842 300.133 481.104H312.133ZM308.748 468.259C306.339 464.511 302.724 462.033 298.475 460.579L294.591 471.933C296.827 472.698 297.991 473.718 298.654 474.749L308.748 468.259ZM298.475 460.579C294.388 459.181 289.532 458.592 284.117 458.592V470.592C288.771 470.592 292.193 471.113 294.591 471.933L298.475 460.579ZM364.894 546V552C368.208 552 370.894 549.314 370.894 546H364.894ZM331.87 546H325.87C325.87 549.314 328.556 552 331.87 552V546ZM331.87 539.344L330.546 533.492C327.812 534.11 325.87 536.54 325.87 539.344H331.87ZM342.622 536.912L343.946 542.764C346.68 542.146 348.622 539.716 348.622 536.912H342.622ZM342.622 463.824H348.622C348.622 461.046 346.715 458.631 344.012 457.987L342.622 463.824ZM331.87 461.264H325.87C325.87 464.042 327.777 466.457 330.48 467.101L331.87 461.264ZM331.87 454.608V448.608C328.556 448.608 325.87 451.294 325.87 454.608H331.87ZM364.894 454.608H370.894C370.894 451.294 368.208 448.608 364.894 448.608V454.608ZM364.894 461.264L366.284 467.101C368.987 466.457 370.894 464.042 370.894 461.264H364.894ZM354.142 463.824L352.752 457.987C350.049 458.631 348.142 461.046 348.142 463.824H354.142ZM354.142 536.912H348.142C348.142 539.716 350.084 542.146 352.818 542.764L354.142 536.912ZM364.894 539.344H370.894C370.894 536.54 368.952 534.11 366.218 533.492L364.894 539.344ZM364.894 540H331.87V552H364.894V540ZM337.87 546V539.344H325.87V546H337.87ZM333.194 545.196L343.946 542.764L341.298 531.06L330.546 533.492L333.194 545.196ZM348.622 536.912V463.824H336.622V536.912H348.622ZM344.012 457.987L333.26 455.427L330.48 467.101L341.232 469.661L344.012 457.987ZM337.87 461.264V454.608H325.87V461.264H337.87ZM331.87 460.608H364.894V448.608H331.87V460.608ZM358.894 454.608V461.264H370.894V454.608H358.894ZM363.504 455.427L352.752 457.987L355.532 469.661L366.284 467.101L363.504 455.427ZM348.142 463.824V536.912H360.142V463.824H348.142ZM352.818 542.764L363.57 545.196L366.218 533.492L355.466 531.06L352.818 542.764ZM358.894 539.344V546H370.894V539.344H358.894ZM446.925 454.608L452.575 456.626C453.232 454.788 452.953 452.747 451.829 451.152C450.706 449.557 448.876 448.608 446.925 448.608V454.608ZM414.285 546V552C416.821 552 419.083 550.406 419.935 548.018L414.285 546ZM402.765 546L397.115 548.018C397.967 550.406 400.229 552 402.765 552V546ZM370.125 454.608V448.608C368.174 448.608 366.344 449.557 365.221 451.152C364.097 452.747 363.818 454.788 364.475 456.626L370.125 454.608ZM382.157 454.608L387.817 452.618C386.973 450.216 384.704 448.608 382.157 448.608V454.608ZM402.765 513.232L397.105 515.222C397.121 515.268 397.138 515.314 397.155 515.36L402.765 513.232ZM405.197 520.4L410.95 518.695L410.95 518.695L405.197 520.4ZM406.989 527.056L401.155 528.456C401.177 528.55 401.202 528.643 401.229 528.736L406.989 527.056ZM408.525 533.2L402.651 534.424C403.231 537.206 405.683 539.2 408.525 539.2C411.367 539.2 413.819 537.206 414.399 534.424L408.525 533.2ZM409.933 526.928L404.155 525.31C404.135 525.382 404.116 525.455 404.099 525.528L409.933 526.928ZM411.853 520.272L406.161 518.375C406.14 518.439 406.119 518.503 406.1 518.567L411.853 520.272ZM414.285 512.976L408.623 510.989C408.613 511.019 408.603 511.049 408.593 511.079L414.285 512.976ZM434.765 454.608V448.608C432.217 448.608 429.947 450.217 429.103 452.621L434.765 454.608ZM441.275 452.59L408.635 543.982L419.935 548.018L452.575 456.626L441.275 452.59ZM414.285 540H402.765V552H414.285V540ZM408.415 543.982L375.775 452.59L364.475 456.626L397.115 548.018L408.415 543.982ZM370.125 460.608H382.157V448.608H370.125V460.608ZM376.497 456.598L397.105 515.222L408.425 511.242L387.817 452.618L376.497 456.598ZM397.155 515.36C398.046 517.709 398.808 519.957 399.444 522.105L410.95 518.695C410.221 516.235 409.361 513.704 408.375 511.104L397.155 515.36ZM399.444 522.105C400.1 524.317 400.669 526.434 401.155 528.456L412.823 525.656C412.285 523.411 411.66 521.091 410.95 518.695L399.444 522.105ZM401.229 528.736C401.783 530.636 402.257 532.532 402.651 534.424L414.399 531.976C413.94 529.772 413.389 527.572 412.749 525.376L401.229 528.736ZM414.399 534.424C414.813 532.438 415.269 530.406 415.767 528.328L404.099 525.528C403.573 527.717 403.091 529.866 402.651 531.976L414.399 534.424ZM415.711 528.546C416.299 526.444 416.931 524.254 417.606 521.977L406.1 518.567C405.41 520.898 404.761 523.146 404.155 525.31L415.711 528.546ZM417.545 522.169C418.313 519.865 419.124 517.433 419.977 514.873L408.593 511.079C407.74 513.639 406.929 516.071 406.161 518.375L417.545 522.169ZM419.947 514.963L440.427 456.595L429.103 452.621L408.623 510.989L419.947 514.963ZM434.765 460.608H446.925V448.608H434.765V460.608ZM485.019 546V552C488.333 552 491.019 549.314 491.019 546H485.019ZM451.995 546H445.995C445.995 549.314 448.681 552 451.995 552V546ZM451.995 539.344L450.671 533.492C447.937 534.11 445.995 536.54 445.995 539.344H451.995ZM462.747 536.912L464.071 542.764C466.805 542.146 468.747 539.716 468.747 536.912H462.747ZM462.747 463.824H468.747C468.747 461.046 466.84 458.631 464.137 457.987L462.747 463.824ZM451.995 461.264H445.995C445.995 464.042 447.902 466.457 450.605 467.101L451.995 461.264ZM451.995 454.608V448.608C448.681 448.608 445.995 451.294 445.995 454.608H451.995ZM485.019 454.608H491.019C491.019 451.294 488.333 448.608 485.019 448.608V454.608ZM485.019 461.264L486.409 467.101C489.112 466.457 491.019 464.042 491.019 461.264H485.019ZM474.267 463.824L472.877 457.987C470.174 458.631 468.267 461.046 468.267 463.824H474.267ZM474.267 536.912H468.267C468.267 539.716 470.209 542.146 472.943 542.764L474.267 536.912ZM485.019 539.344H491.019C491.019 536.54 489.077 534.11 486.343 533.492L485.019 539.344ZM485.019 540H451.995V552H485.019V540ZM457.995 546V539.344H445.995V546H457.995ZM453.319 545.196L464.071 542.764L461.423 531.06L450.671 533.492L453.319 545.196ZM468.747 536.912V463.824H456.747V536.912H468.747ZM464.137 457.987L453.385 455.427L450.605 467.101L461.357 469.661L464.137 457.987ZM457.995 461.264V454.608H445.995V461.264H457.995ZM451.995 460.608H485.019V448.608H451.995V460.608ZM479.019 454.608V461.264H491.019V454.608H479.019ZM483.629 455.427L472.877 457.987L475.657 469.661L486.409 467.101L483.629 455.427ZM468.267 463.824V536.912H480.267V463.824H468.267ZM472.943 542.764L483.695 545.196L486.343 533.492L475.591 531.06L472.943 542.764ZM479.019 539.344V546H491.019V539.344H479.019ZM560.01 546L554.418 548.176C555.316 550.481 557.536 552 560.01 552V546ZM549.002 517.712L554.594 515.536C553.696 513.231 551.476 511.712 549.002 511.712V517.712ZM512.778 517.712V511.712C510.295 511.712 508.069 513.241 507.178 515.558L512.778 517.712ZM501.898 546V552C504.381 552 506.607 550.471 507.498 548.154L501.898 546ZM490.25 546L484.658 543.824C483.94 545.67 484.179 547.752 485.297 549.387C486.416 551.022 488.269 552 490.25 552V546ZM525.962 454.224V448.224C523.488 448.224 521.268 449.743 520.37 452.048L525.962 454.224ZM536.33 454.224L541.924 452.055C541.029 449.746 538.807 448.224 536.33 448.224V454.224ZM571.914 546V552C573.894 552 575.746 551.023 576.864 549.39C577.983 547.757 578.224 545.677 577.508 543.831L571.914 546ZM535.306 479.824L540.932 477.74C540.93 477.732 540.927 477.725 540.924 477.717L535.306 479.824ZM534.026 476.112L528.334 478.009L528.334 478.009L534.026 476.112ZM532.234 470.608L526.428 472.123C526.455 472.225 526.484 472.326 526.516 472.427L532.234 470.608ZM530.954 466.128L536.646 464.231C535.803 461.7 533.389 460.03 530.724 460.132C528.058 460.235 525.78 462.085 525.133 464.673L530.954 466.128ZM529.546 471.376L523.777 469.728C523.759 469.792 523.741 469.856 523.725 469.921L529.546 471.376ZM528.138 476.112L522.48 474.115C522.445 474.215 522.412 474.317 522.382 474.419L528.138 476.112ZM526.986 479.824L532.604 481.931C532.63 481.861 532.655 481.792 532.678 481.721L526.986 479.824ZM516.618 507.472L511 505.365C510.309 507.208 510.566 509.272 511.686 510.89C512.807 512.507 514.65 513.472 516.618 513.472V507.472ZM545.546 507.472V513.472C547.51 513.472 549.349 512.511 550.471 510.9C551.592 509.288 551.854 507.229 551.172 505.388L545.546 507.472ZM565.602 543.824L554.594 515.536L543.41 519.888L554.418 548.176L565.602 543.824ZM549.002 511.712H512.778V523.712H549.002V511.712ZM507.178 515.558L496.298 543.846L507.498 548.154L518.378 519.866L507.178 515.558ZM501.898 540H490.25V552H501.898V540ZM495.842 548.176L531.554 456.4L520.37 452.048L484.658 543.824L495.842 548.176ZM525.962 460.224H536.33V448.224H525.962V460.224ZM530.736 456.393L566.32 548.169L577.508 543.831L541.924 452.055L530.736 456.393ZM571.914 540H560.01V552H571.914V540ZM540.924 477.717C540.712 477.152 540.317 476.012 539.718 474.215L528.334 478.009C528.929 479.796 529.388 481.131 529.688 481.931L540.924 477.717ZM539.718 474.215C539.13 472.45 538.541 470.641 537.952 468.789L526.516 472.427C527.122 474.33 527.728 476.19 528.334 478.009L539.718 474.215ZM538.04 469.093C537.518 467.093 537.051 465.446 536.646 464.231L525.262 468.025C525.539 468.858 525.926 470.198 526.428 472.123L538.04 469.093ZM525.133 464.673C524.724 466.311 524.272 467.996 523.777 469.728L535.315 473.024C535.844 471.172 536.331 469.358 536.775 467.583L525.133 464.673ZM523.725 469.921C523.338 471.47 522.921 472.865 522.48 474.115L533.796 478.109C534.379 476.457 534.901 474.696 535.367 472.831L523.725 469.921ZM522.382 474.419C521.968 475.826 521.606 476.991 521.294 477.927L532.678 481.721C533.049 480.609 533.455 479.299 533.894 477.805L522.382 474.419ZM521.368 477.717L511 505.365L522.236 509.579L532.604 481.931L521.368 477.717ZM516.618 513.472H545.546V501.472H516.618V513.472ZM551.172 505.388L540.932 477.74L529.68 481.908L539.92 509.556L551.172 505.388Z" fill="black"/>
</g>
<g filter="url(#filter2_d_203_80)">
<circle cx="302.5" cy="263.5" r="84.5" fill="white"/>
<circle cx="302.5" cy="263.5" r="81.5" stroke="black" stroke-width="6"/>
</g>
<g filter="url(#filter3_d_203_80)">
<path d="M472.553 98.2939C481.791 98.2939 487.564 108.294 482.946 116.294L405.436 250.544C400.817 258.544 389.27 258.544 384.652 250.544L307.142 116.294C302.524 108.294 308.297 98.2939 317.535 98.2939L472.553 98.2939Z" fill="#37CFFF"/>
<path d="M480.348 114.794L402.838 249.044C399.374 255.044 390.714 255.044 387.25 249.044L309.74 114.794C306.276 108.794 310.607 101.294 317.535 101.294L472.553 101.294C479.481 101.294 483.812 108.794 480.348 114.794Z" stroke="black" stroke-width="6"/>
</g>
<g filter="url(#filter4_d_203_80)">
<circle cx="524.5" cy="130.5" r="49.5" fill="#FF37D3"/>
<circle cx="524.5" cy="130.5" r="46.5" stroke="black" stroke-width="6"/>
</g>
<g filter="url(#filter5_d_203_80)">
<rect x="439" y="173" width="175" height="175" rx="12" fill="#FF3737"/>
<rect x="442" y="176" width="169" height="169" rx="9" stroke="black" stroke-width="6"/>
</g>
<defs>
<filter id="filter0_d_203_80" x="0" y="416" width="861" height="356" filterUnits="userSpaceOnUse" color-interpolation-filters="sRGB">
<feFlood flood-opacity="0" result="BackgroundImageFix"/>
<feColorMatrix in="SourceAlpha" type="matrix" values="0 0 0 0 0 0 0 0 0 0 0 0 0 0 0 0 0 0 127 0" result="hardAlpha"/>
<feOffset dx="8" dy="8"/>
<feComposite in2="hardAlpha" operator="out"/>
<feColorMatrix type="matrix" values="0 0 0 0 0 0 0 0 0 0 0 0 0 0 0 0 0 0 1 0"/>
<feBlend mode="normal" in2="BackgroundImageFix" result="effect1_dropShadow_203_80"/>
<feBlend mode="normal" in="SourceGraphic" in2="effect1_dropShadow_203_80" result="shape"/>
</filter>
<filter id="filter1_d_203_80" x="177.28" y="454.224" width="406.634" height="103.776" filterUnits="userSpaceOnUse" color-interpolation-filters="sRGB">
<feFlood flood-opacity="0" result="BackgroundImageFix"/>
<feColorMatrix in="SourceAlpha" type="matrix" values="0 0 0 0 0 0 0 0 0 0 0 0 0 0 0 0 0 0 127 0" result="hardAlpha"/>
<feOffset dx="12" dy="12"/>
<feComposite in2="hardAlpha" operator="out"/>
<feColorMatrix type="matrix" values="0 0 0 0 0 0 0 0 0 0 0 0 0 0 0 0 0 0 1 0"/>
<feBlend mode="normal" in2="BackgroundImageFix" result="effect1_dropShadow_203_80"/>
<feBlend mode="normal" in="SourceGraphic" in2="effect1_dropShadow_203_80" result="shape"/>
</filter>
<filter id="filter2_d_203_80" x="218" y="179" width="181" height="181" filterUnits="userSpaceOnUse" color-interpolation-filters="sRGB">
<feFlood flood-opacity="0" result="BackgroundImageFix"/>
<feColorMatrix in="SourceAlpha" type="matrix" values="0 0 0 0 0 0 0 0 0 0 0 0 0 0 0 0 0 0 127 0" result="hardAlpha"/>
<feOffset dx="12" dy="12"/>
<feComposite in2="hardAlpha" operator="out"/>
<feColorMatrix type="matrix" values="0 0 0 0 0 0 0 0 0 0 0 0 0 0 0 0 0 0 1 0"/>
<feBlend mode="normal" in2="BackgroundImageFix" result="effect1_dropShadow_203_80"/>
<feBlend mode="normal" in="SourceGraphic" in2="effect1_dropShadow_203_80" result="shape"/>
</filter>
<filter id="filter3_d_203_80" x="305.517" y="98.2938" width="191.054" height="170.25" filterUnits="userSpaceOnUse" color-interpolation-filters="sRGB">
<feFlood flood-opacity="0" result="BackgroundImageFix"/>
<feColorMatrix in="SourceAlpha" type="matrix" values="0 0 0 0 0 0 0 0 0 0 0 0 0 0 0 0 0 0 127 0" result="hardAlpha"/>
<feOffset dx="12" dy="12"/>
<feComposite in2="hardAlpha" operator="out"/>
<feColorMatrix type="matrix" values="0 0 0 0 0 0 0 0 0 0 0 0 0 0 0 0 0 0 1 0"/>
<feBlend mode="normal" in2="BackgroundImageFix" result="effect1_dropShadow_203_80"/>
<feBlend mode="normal" in="SourceGraphic" in2="effect1_dropShadow_203_80" result="shape"/>
</filter>
<filter id="filter4_d_203_80" x="475" y="81" width="111" height="111" filterUnits="userSpaceOnUse" color-interpolation-filters="sRGB">
<feFlood flood-opacity="0" result="BackgroundImageFix"/>
<feColorMatrix in="SourceAlpha" type="matrix" values="0 0 0 0 0 0 0 0 0 0 0 0 0 0 0 0 0 0 127 0" result="hardAlpha"/>
<feOffset dx="12" dy="12"/>
<feComposite in2="hardAlpha" operator="out"/>
<feColorMatrix type="matrix" values="0 0 0 0 0 0 0 0 0 0 0 0 0 0 0 0 0 0 1 0"/>
<feBlend mode="normal" in2="BackgroundImageFix" result="effect1_dropShadow_203_80"/>
<feBlend mode="normal" in="SourceGraphic" in2="effect1_dropShadow_203_80" result="shape"/>
</filter>
<filter id="filter5_d_203_80" x="439" y="173" width="187" height="187" filterUnits="userSpaceOnUse" color-interpolation-filters="sRGB">
<feFlood flood-opacity="0" result="BackgroundImageFix"/>
<feColorMatrix in="SourceAlpha" type="matrix" values="0 0 0 0 0 0 0 0 0 0 0 0 0 0 0 0 0 0 127 0" result="hardAlpha"/>
<feOffset dx="12" dy="12"/>
<feComposite in2="hardAlpha" operator="out"/>
<feColorMatrix type="matrix" values="0 0 0 0 0 0 0 0 0 0 0 0 0 0 0 0 0 0 1 0"/>
<feBlend mode="normal" in2="BackgroundImageFix" result="effect1_dropShadow_203_80"/>
<feBlend mode="normal" in="SourceGraphic" in2="effect1_dropShadow_203_80" result="shape"/>
</filter>
</defs>
</svg>
